PathFileType	4	(X/Y/Z)	s05c0402.trc
DataRate	CameraRate	NumFrames	NumMarkers	Units	OrigDataRate	OrigDataStartFrame	OrigNumFrames
200	200	6	50	mm	200	1000	2000
Frame#	Time	racr			lacr			c7			jug			rlel			rdr			llel			ldr			s2			lic			ric			lasi			rasi			rpsi			lpsi			rgt			lgt			rth1			rth2			rth3			rth4			rlfc			rmfc			rsh1			rsh2			rsh3			rsh4			rlmal			rmmal			rcal			rtoe			rmt5			lth1			lth2			lth4			lth3			llfc			lmfc			lsh1			lsh2			lsh3			lsh4			llmal			lmmal			lcal			ltoe			lmt5			SBIKE			LBIKE			RBIKE			
		X1	Y1	Z1	X2	Y2	Z2	X3	Y3	Z3	X4	Y4	Z4	X5	Y5	Z5	X6	Y6	Z6	X7	Y7	Z7	X8	Y8	Z8	X9	Y9	Z9	X10	Y10	Z10	X11	Y11	Z11	X12	Y12	Z12	X13	Y13	Z13	X14	Y14	Z14	X15	Y15	Z15	X16	Y16	Z16	X17	Y17	Z17	X18	Y18	Z18	X19	Y19	Z19	X20	Y20	Z20	X21	Y21	Z21	X22	Y22	Z22	X23	Y23	Z23	X24	Y24	Z24	X25	Y25	Z25	X26	Y26	Z26	X27	Y27	Z27	X28	Y28	Z28	X29	Y29	Z29	X30	Y30	Z30	X31	Y31	Z31	X32	Y32	Z32	X33	Y33	Z33	X34	Y34	Z34	X35	Y35	Z35	X36	Y36	Z36	X37	Y37	Z37	X38	Y38	Z38	X39	Y39	Z39	X40	Y40	Z40	X41	Y41	Z41	X42	Y42	Z42	X43	Y43	Z43	X44	Y44	Z44	X45	Y45	Z45	X46	Y46	Z46	X47	Y47	Z47	X48	Y48	Z48	X49	Y49	Z49	X50	Y50	Z50	
1000	5.0000	815.001499	1246.443518	-179.597408	802.619683	1268.404450	-488.425536	813.575163	1349.255442	-341.106862	741.175211	1194.604727	-338.561369	595.928327	1153.439542	10.146240	688.261692	964.359153	-77.175842	531.629141	1149.733393	-605.786082	666.241120	959.423647	-516.889730	225.029136	1268.632304	-239.273139	338.943562	1275.252305	-397.802820	392.707347	1221.946576	-121.714934	377.435800	1207.001631	-378.478030	405.152995	1155.895811	-160.774157	279.762643	1296.356790	-194.395160	268.346340	1316.313865	-279.161390	288.603792	1106.350736	-108.066938	267.264619	1196.468069	-430.923248	309.635566	994.664371	-95.856935	336.179683	909.501134	-93.894023	316.371007	823.449069	-97.863804	371.733915	911.146217	-103.798306	330.783606	672.313725	-118.046577	315.288844	670.962873	-226.533068	245.159423	605.964388	-88.423828	211.111539	524.886481	-98.628625	144.530558	470.287403	-100.526821	236.249949	508.788292	-123.134258	68.562312	354.706179	-105.979078	95.787233	371.482304	-185.828181	-2.932694	377.292785	-151.453795	186.506542	148.963719	-161.635298	102.640731	203.527340	-92.004016	355.390152	1090.358217	-463.617803	434.413345	1057.141295	-470.657781	458.416036	1081.226628	-451.444798	487.549706	983.784723	-479.130201	584.053722	866.301936	-458.587867	579.663282	851.044840	-346.882863	482.602303	790.570438	-471.376023	436.265544	717.386002	-459.451504	357.373657	677.259919	-452.444823	460.870281	693.896058	-441.589476	270.959086	581.386097	-440.343893	312.441370	594.701797	-367.725346	198.818940	574.006473	-394.882881	444.392430	414.449760	-408.051420	335.502132	442.379198	-469.118824	-263.537498	894.442696	-286.798647	-53.487539	79.276858	-475.004716	-53.454793	79.401876	-77.438139	
1001	5.0050	815.037775	1248.116970	-180.585733	801.857288	1269.459989	-489.247020	813.313611	1350.668131	-342.390139	740.974728	1195.818907	-338.907833	596.215346	1153.339793	8.482701	688.319426	964.399734	-78.095454	530.776850	1150.033253	-605.918501	665.917681	959.859262	-516.747415	224.613951	1270.683594	-239.007532	341.056021	1276.022972	-399.344653	392.130347	1225.106303	-121.192003	377.538404	1207.705402	-378.093885	404.924597	1158.378138	-160.126679	279.717456	1298.841129	-194.593593	268.393722	1318.210035	-280.007863	289.303966	1108.729576	-107.495392	266.581179	1197.431741	-430.616206	312.326509	996.364888	-95.269039	340.755701	911.781471	-94.045375	322.910264	825.347291	-97.866423	376.201356	914.268915	-104.652466	338.377126	674.461034	-117.863223	323.754893	673.612629	-226.315011	250.995273	610.250414	-88.251520	214.553793	530.205752	-98.467599	146.317982	477.570220	-100.521070	239.134228	513.470198	-123.122720	66.682887	363.765505	-105.910660	94.564435	380.084477	-186.138592	-4.230599	387.972088	-151.724133	178.903658	154.637467	-161.492577	96.538599	211.641129	-92.216384	352.818421	1089.391618	-463.748608	431.682303	1053.893291	-469.011750	455.594817	1078.513915	-452.848292	482.414298	980.517965	-480.770668	577.076555	861.681276	-460.738394	573.636344	846.428175	-348.400496	476.911995	783.423260	-472.472849	432.568897	708.992366	-459.809998	354.692582	667.067820	-452.617649	457.723141	686.350085	-442.059896	270.403307	569.595430	-439.269721	312.173069	584.309642	-367.119472	198.843933	559.547741	-393.200521	450.588648	410.428895	-409.925524	339.766082	433.636289	-469.694756	-263.765923	894.515361	-287.387491	-53.483688	79.336016	-475.088415	-53.459985	79.463916	-77.445651	
1002	5.0100	815.142684	1249.945069	-181.487306	801.298077	1270.758402	-489.994027	813.092660	1352.249673	-343.397268	740.918799	1196.979898	-339.212539	596.551631	1153.319305	6.871001	688.310859	964.449382	-78.743525	530.072630	1150.516113	-605.922529	665.694584	960.363288	-516.542234	224.851159	1272.713865	-239.428149	341.146888	1276.288912	-399.524757	391.724413	1228.144952	-120.755797	377.594989	1208.185544	-377.738741	404.825379	1160.606056	-159.490107	281.114436	1300.276175	-196.745606	268.591688	1319.116381	-279.100646	290.258268	1110.945787	-106.652542	265.857098	1198.001042	-430.237729	315.213124	997.840657	-94.858392	345.625660	913.991572	-94.219936	329.579674	827.210958	-98.040795	380.919138	917.284157	-105.284408	346.088658	676.588587	-117.756509	332.072255	676.154829	-226.225038	257.133401	614.358158	-88.157239	218.451535	535.451929	-98.368040	148.616762	484.905266	-100.348119	242.418002	517.938796	-123.208292	65.376613	372.984154	-105.796517	93.989179	388.876444	-186.309220	-4.920152	399.095141	-151.669883	171.814470	161.008941	-161.308177	90.995215	220.156213	-92.370919	350.116738	1087.914605	-463.814066	428.145040	1051.004802	-469.798834	452.666937	1075.266677	-454.152344	477.284234	976.705611	-481.756262	569.786546	856.341660	-462.396985	568.014086	841.288352	-349.983753	471.205270	775.620898	-473.479402	428.733337	699.949074	-460.080339	352.035628	656.032839	-452.393406	454.506772	678.099364	-442.107870	269.836492	557.465779	-437.980117	311.756605	573.318365	-366.230117	199.309691	544.629792	-392.177187	456.176174	405.618419	-410.623828	344.208507	424.335756	-469.933979	-263.634890	894.520278	-287.467886	-53.474382	79.301968	-475.113338	-53.441120	79.488704	-77.465769	
1003	5.0150	815.238280	1251.984192	-182.205948	800.911842	1272.262613	-490.624712	812.855893	1354.001471	-344.348314	740.932264	1198.577859	-339.432601	596.933958	1153.461174	5.386676	688.371595	964.522641	-79.250614	529.487342	1151.180613	-605.711516	665.554688	960.819008	-516.397988	227.066529	1273.445249	-240.185945	341.254158	1276.340329	-399.855159	391.515531	1230.707177	-120.513827	377.621421	1208.407816	-377.339301	404.783897	1162.676974	-158.855008	280.983503	1302.226240	-197.460040	268.004352	1319.233008	-276.026543	291.166095	1112.776283	-105.905314	265.114484	1198.209917	-429.923781	318.349076	999.385673	-94.606372	350.590912	916.256688	-94.358465	336.431061	829.115486	-98.237388	385.702175	920.320849	-105.708964	353.849248	678.787726	-117.733555	340.061801	678.609890	-226.314429	263.676236	618.316034	-88.109182	222.591899	540.677544	-98.233712	151.326674	492.048398	-100.044648	245.865801	522.396682	-123.521091	64.501229	382.289703	-105.541729	93.761495	397.563400	-186.257499	-5.112810	410.266987	-151.520642	165.229005	167.483710	-161.258667	86.022739	228.879717	-92.513241	347.277031	1086.410259	-464.015442	424.453038	1047.891932	-470.587181	449.615957	1071.739317	-455.317139	472.017097	972.542746	-482.608727	562.552550	850.569547	-462.828632	561.668845	835.755374	-351.148758	465.084842	766.839335	-473.675611	424.823904	690.415194	-460.090588	349.322675	644.439199	-451.866376	451.212318	669.380267	-441.866758	269.814643	544.914759	-437.065541	311.120381	561.892125	-365.313556	199.657114	529.670324	-391.360368	461.282778	399.892702	-410.551174	348.732512	414.890232	-469.906901	-263.618290	894.497670	-287.577480	-53.482029	79.260042	-475.123339	-53.416301	79.446794	-77.500098	
1004	5.0200	815.292084	1254.054362	-182.774676	800.658876	1273.957351	-491.228017	812.666994	1355.849703	-345.162606	741.148736	1200.263950	-339.672531	597.321624	1153.868112	4.072963	688.390636	964.553492	-79.561268	529.115548	1151.902207	-605.385947	665.558417	961.289456	-516.374360	226.894666	1274.828458	-240.623476	341.103773	1276.091079	-400.195933	391.267498	1232.990223	-120.487338	377.580243	1208.386537	-377.068656	404.788384	1164.615233	-158.324896	280.912915	1303.767548	-198.248121	268.293788	1320.384770	-278.400156	291.914675	1114.187818	-105.374465	264.268611	1198.134872	-429.716196	321.572386	1000.848330	-94.654399	355.624536	918.435338	-95.013524	343.334822	831.091566	-98.427611	390.478695	923.240685	-106.302455	361.352110	681.046060	-117.740691	347.745870	681.002050	-226.450553	270.257583	622.154511	-87.969293	227.014603	545.651272	-98.201612	154.316677	499.227895	-99.512377	249.020598	527.078717	-124.090811	64.126710	391.668598	-105.271289	91.380002	408.051944	-185.869774	-4.821320	421.516889	-151.271823	159.139925	174.523251	-161.132396	81.562349	237.843731	-92.572342	344.389189	1084.594820	-464.123768	420.727229	1044.843345	-470.958999	446.490523	1067.921438	-456.315054	466.367148	968.153470	-483.757104	555.000969	844.368038	-463.315201	555.118317	829.933212	-352.005760	458.972760	758.035190	-473.935239	420.813993	680.636682	-459.983682	346.696584	632.579406	-451.151837	447.918479	660.373587	-441.526763	269.916386	532.046896	-436.444964	310.946546	550.263474	-364.823830	200.399501	514.902191	-390.710633	465.636425	393.238304	-410.884378	352.516299	404.774775	-469.912511	-263.621714	894.464022	-287.549545	-53.482782	79.235115	-475.132017	-53.426481	79.415062	-77.488622	
1005	5.0250	814.558875	1256.420623	-182.790261	800.499875	1275.778235	-491.671144	812.506680	1357.830193	-345.767140	741.990407	1201.397411	-339.894344	597.797364	1154.458966	2.990413	688.391430	964.594739	-79.728494	528.886308	1152.804930	-604.915608	665.718119	961.747400	-516.379535	226.538393	1275.879344	-240.927971	340.833978	1275.737806	-400.528490	390.971846	1234.926656	-120.582556	377.488401	1208.159921	-376.818719	404.751351	1166.258067	-157.981721	280.704750	1304.950123	-198.935988	267.961554	1320.976895	-279.146349	293.396852	1115.398595	-104.350896	263.306077	1197.734056	-429.496033	324.963597	1002.312884	-94.819406	360.620722	920.562991	-95.847241	350.059677	832.987210	-98.607402	395.131862	926.060254	-107.070904	368.817139	683.208483	-117.769331	354.922830	683.433431	-226.710883	277.084559	625.754033	-87.902988	231.611759	550.425979	-98.124435	157.625969	506.038419	-99.081536	252.828246	531.483466	-124.387044	64.119817	401.225550	-104.975031	92.115288	416.564761	-186.370960	-4.134698	432.923557	-150.935266	153.671869	181.946866	-161.120089	77.717299	246.996736	-92.531563	341.572744	1082.642877	-464.263750	417.029468	1041.176247	-471.270501	443.546104	1063.903257	-457.389922	461.269736	963.486922	-483.594438	547.334568	837.924961	-463.620127	548.314079	823.819304	-352.564338	452.838126	749.017439	-474.007775	416.993943	670.620226	-459.976919	344.134804	620.542472	-450.516958	445.045224	651.466604	-441.321433	270.097795	519.348156	-435.981345	310.649832	538.712886	-364.285228	201.164661	500.420237	-389.556098	469.426900	385.783012	-411.475907	355.751524	394.199883	-470.027587	-263.492779	894.355665	-287.345806	-53.483026	79.187779	-475.091370	-53.443492	79.439421	-77.428877	
